<?xml version="1.0"?>
<!-- Generated by SVGo and Plotinum VG -->
<svg width="300pt" height="300pt" viewBox="0 0 300 300"
	xmlns="http://www.w3.org/2000/svg"
	xmlns:xlink="http://www.w3.org/1999/xlink">
<g transform="scale(1, -1) translate(0, -300)">
<path d="M0,0L300,0L300,300L0,300Z" style="fill:#FFFFFF" />
<text x="25.076" y="-3.252" transform="scale(1, -1)"
	style="font-family:Liberation Serif;font-variant:normal;font-weight:normal;font-style:normal;font-size:10px">-5</text>
<text x="159.79" y="-3.252" transform="scale(1, -1)"
	style="font-family:Liberation Serif;font-variant:normal;font-weight:normal;font-style:normal;font-size:10px">0</text>
<text x="292.84" y="-3.252" transform="scale(1, -1)"
	style="font-family:Liberation Serif;font-variant:normal;font-weight:normal;font-style:normal;font-size:10px">5</text>
<path d="M29.241,11.074L29.241,19.074" style="fill:none;stroke:#000000;stroke-width:0.5" />
<path d="M162.29,11.074L162.29,19.074" style="fill:none;stroke:#000000;stroke-width:0.5" />
<path d="M295.34,11.074L295.34,19.074" style="fill:none;stroke:#000000;stroke-width:0.5" />
<path d="M55.851,15.074L55.851,19.074" style="fill:none;stroke:#000000;stroke-width:0.5" />
<path d="M82.461,15.074L82.461,19.074" style="fill:none;stroke:#000000;stroke-width:0.5" />
<path d="M109.07,15.074L109.07,19.074" style="fill:none;stroke:#000000;stroke-width:0.5" />
<path d="M135.68,15.074L135.68,19.074" style="fill:none;stroke:#000000;stroke-width:0.5" />
<path d="M188.9,15.074L188.9,19.074" style="fill:none;stroke:#000000;stroke-width:0.5" />
<path d="M215.51,15.074L215.51,19.074" style="fill:none;stroke:#000000;stroke-width:0.5" />
<path d="M242.12,15.074L242.12,19.074" style="fill:none;stroke:#000000;stroke-width:0.5" />
<path d="M268.73,15.074L268.73,19.074" style="fill:none;stroke:#000000;stroke-width:0.5" />
<path d="M26.58,19.074L298,19.074" style="fill:none;stroke:#000000;stroke-width:0.5" />
<text x="0" y="-24.039" transform="scale(1, -1)"
	style="font-family:Liberation Serif;font-variant:normal;font-weight:normal;font-style:normal;font-size:10px">-5</text>
<text x="3.3301" y="-158.11" transform="scale(1, -1)"
	style="font-family:Liberation Serif;font-variant:normal;font-weight:normal;font-style:normal;font-size:10px">0</text>
<text x="3.3301" y="-292.18" transform="scale(1, -1)"
	style="font-family:Liberation Serif;font-variant:normal;font-weight:normal;font-style:normal;font-size:10px">5</text>
<path d="M10.83,26.324L18.83,26.324" style="fill:none;stroke:#000000;stroke-width:0.5" />
<path d="M10.83,160.39L18.83,160.39" style="fill:none;stroke:#000000;stroke-width:0.5" />
<path d="M10.83,294.46L18.83,294.46" style="fill:none;stroke:#000000;stroke-width:0.5" />
<path d="M14.83,53.138L18.83,53.138" style="fill:none;stroke:#000000;stroke-width:0.5" />
<path d="M14.83,79.952L18.83,79.952" style="fill:none;stroke:#000000;stroke-width:0.5" />
<path d="M14.83,106.77L18.83,106.77" style="fill:none;stroke:#000000;stroke-width:0.5" />
<path d="M14.83,133.58L18.83,133.58" style="fill:none;stroke:#000000;stroke-width:0.5" />
<path d="M14.83,187.21L18.83,187.21" style="fill:none;stroke:#000000;stroke-width:0.5" />
<path d="M14.83,214.02L18.83,214.02" style="fill:none;stroke:#000000;stroke-width:0.5" />
<path d="M14.83,240.84L18.83,240.84" style="fill:none;stroke:#000000;stroke-width:0.5" />
<path d="M14.83,267.65L18.83,267.65" style="fill:none;stroke:#000000;stroke-width:0.5" />
<path d="M18.83,26.324L18.83,294.46" style="fill:none;stroke:#000000;stroke-width:0.5" />
<path d="M217.51,187.21A2,2 0 1 1 213.51,187.21A2,2 0 1 1 217.51,187.21Z" style="fill:none;stroke:#FF0080;stroke-width:0.5" />
<path d="M270.73,240.84A2,2 0 1 1 266.73,240.84A2,2 0 1 1 270.73,240.84Z" style="fill:none;stroke:#FF0080;stroke-width:0.5" />
<path d="M244.12,216.7A2,2 0 1 1 240.12,216.7A2,2 0 1 1 244.12,216.7Z" style="fill:none;stroke:#FF0080;stroke-width:0.5" />
<path d="M276.05,267.65A2,2 0 1 1 272.05,267.65A2,2 0 1 1 276.05,267.65Z" style="fill:none;stroke:#FF0080;stroke-width:0.5" />
<path d="M300,294.46A2,2 0 1 1 296,294.46A2,2 0 1 1 300,294.46Z" style="fill:none;stroke:#FF0080;stroke-width:0.5" />
<path d="M28.58,26.324A2,2 0 1 1 24.58,26.324A2,2 0 1 1 28.58,26.324Z" style="fill:none;stroke:#FF0080;stroke-width:0.5" />
<path d="M32.897,26.324L37.658,30.865L43.198,36.147L48.737,41.429L54.276,46.711L59.815,51.993L65.354,57.275L70.894,62.556L76.433,67.838L81.972,73.12L87.511,78.402L93.05,83.684L98.589,88.966L104.13,94.248L109.67,99.53L115.21,104.81L120.75,110.09L126.29,115.38L131.82,120.66L137.36,125.94L142.9,131.22L148.44,136.5L153.98,141.79L159.52,147.07L165.06,152.35L170.6,157.63L176.14,162.91L181.68,168.19L187.22,173.48L192.76,178.76L198.29,184.04L203.83,189.32L209.37,194.6L214.91,199.89L220.45,205.17L225.99,210.45L231.53,215.73L237.07,221.01L242.61,226.3L248.15,231.58L253.69,236.86L259.23,242.14L264.76,247.42L270.3,252.71L275.84,257.99L281.38,263.27L286.92,268.55L292.46,273.83L298,279.12" style="fill:none;stroke:#0000FF" />
</g>
</svg>
